# xmcd
#
# Track frame offsets:
#	182
#	22942
#	45655
#	68495
#	90505
#	113177
#	135725
#
# Disc length: 2123 seconds
#
# Revision: 0
# Processed by: cddbd v1.5.2PL0 Copyright (c) Steve Scherf et al.
# Submitted via: EasyCDDAExtractor 11.0.2.1
#
DISCID=4f084907
DTITLE=Blackstreet - Before I Let You Go - Single
DYEAR=1994
DGENRE=R&B
TTITLE0=Before I Let You Go (Main Mix One)
TTITLE1=Before I Let You Go (Main Mix Two)
TTITLE2=Before I Let You Go (Instrumental)
TTITLE3=Before I Let You Go (Acapella Mix)
TTITLE4=Before I Let You Go (Regga Dub Mix)
TTITLE5=Before I Let You Go (T.R. Mix)
TTITLE6=Before I Let You Go (Blackstreet Live Version)
EXTD=
EXTT0=
EXTT1=
EXTT2=
EXTT3=
EXTT4=
EXTT5=
EXTT6=
PLAYORDER=
